<svg width="48" height="48" viewBox="0 0 48 48" fill="none" xmlns="http://www.w3.org/2000/svg">
<path d="M31.434 4.94128C31.4919 4.75296 31.5122 4.55509 31.4936 4.35894C31.475 4.1628 31.418 3.97223 31.3258 3.79812C31.2336 3.62401 31.108 3.46977 30.9562 3.3442C30.8044 3.21863 30.6293 3.12419 30.441 3.06628C30.2527 3.00837 30.0548 2.98811 29.8587 3.00667C29.6625 3.02523 29.4719 3.08225 29.2978 3.17445C29.1237 3.26666 28.9695 3.39226 28.8439 3.54408C28.7183 3.6959 28.6239 3.87096 28.566 4.05928L16.566 43.0593C16.449 43.4396 16.4879 43.8508 16.6742 44.2024C16.8604 44.5541 17.1787 44.8173 17.559 44.9343C17.9393 45.0512 18.3505 45.0123 18.7022 44.8261C19.0538 44.6399 19.317 44.3216 19.434 43.9413L31.434 4.94128ZM14.562 12.4383C14.7017 12.5776 14.8125 12.7431 14.8881 12.9254C14.9638 13.1076 15.0027 13.303 15.0027 13.5003C15.0027 13.6976 14.9638 13.8929 14.8881 14.0752C14.8125 14.2574 14.7017 14.4229 14.562 14.5623L5.121 24.0003L14.562 33.4383C14.8437 33.7199 15.0019 34.102 15.0019 34.5003C15.0019 34.8986 14.8437 35.2806 14.562 35.5623C14.2803 35.8439 13.8983 36.0022 13.5 36.0022C13.1017 36.0022 12.7197 35.8439 12.438 35.5623L1.938 25.0623C1.79831 24.9229 1.68748 24.7574 1.61186 24.5752C1.53624 24.3929 1.49731 24.1976 1.49731 24.0003C1.49731 23.803 1.53624 23.6076 1.61186 23.4254C1.68748 23.2431 1.79831 23.0776 1.938 22.9383L12.438 12.4383C12.5773 12.2986 12.7429 12.1878 12.9251 12.1121C13.1073 12.0365 13.3027 11.9976 13.5 11.9976C13.6973 11.9976 13.8927 12.0365 14.0749 12.1121C14.2571 12.1878 14.4227 12.2986 14.562 12.4383ZM33.438 12.4383C33.2983 12.5776 33.1875 12.7431 33.1119 12.9254C33.0362 13.1076 32.9973 13.303 32.9973 13.5003C32.9973 13.6976 33.0362 13.8929 33.1119 14.0752C33.1875 14.2574 33.2983 14.4229 33.438 14.5623L42.879 24.0003L33.438 33.4383C33.2985 33.5777 33.1879 33.7433 33.1124 33.9255C33.0369 34.1077 32.9981 34.3031 32.9981 34.5003C32.9981 34.6975 33.0369 34.8928 33.1124 35.075C33.1879 35.2573 33.2985 35.4228 33.438 35.5623C33.5775 35.7017 33.743 35.8124 33.9252 35.8879C34.1075 35.9633 34.3028 36.0022 34.5 36.0022C34.6972 36.0022 34.8925 35.9633 35.0747 35.8879C35.257 35.8124 35.4225 35.7017 35.562 35.5623L46.062 25.0623C46.2017 24.9229 46.3125 24.7574 46.3881 24.5752C46.4637 24.3929 46.5027 24.1976 46.5027 24.0003C46.5027 23.803 46.4637 23.6076 46.3881 23.4254C46.3125 23.2431 46.2017 23.0776 46.062 22.9383L35.562 12.4383C35.4227 12.2986 35.2571 12.1878 35.0749 12.1121C34.8927 12.0365 34.6973 11.9976 34.5 11.9976C34.3027 11.9976 34.1073 12.0365 33.9251 12.1121C33.7429 12.1878 33.5773 12.2986 33.438 12.4383Z" fill="#5D31A6"/>
</svg>
