<svg width="70" height="94" viewBox="0 0 70 94" fill="none" xmlns="http://www.w3.org/2000/svg">
<path d="M2.55206 17.5868C2.55206 7.87397 10.3702 0 20.0143 0H49.9772C59.6214 0 67.4395 7.87397 67.4395 17.5868C67.4395 23.7372 64.3048 29.1503 59.5567 32.2936C64.3048 35.4371 67.4395 40.85 67.4395 47.0004C67.4395 56.7134 59.6214 64.5874 49.9772 64.5874H49.5981C45.0769 64.5874 40.9569 62.8568 37.8558 60.0175V76.2221C37.8558 86.0645 29.8333 94 20.1084 94C10.4883 94 2.55206 86.1501 2.55206 76.413C2.55206 70.263 5.68657 64.8503 10.4344 61.7068C5.6862 58.5633 2.55206 53.1504 2.55206 47.0004C2.55206 40.85 5.68675 35.4371 10.4347 32.2936C5.68693 29.1503 2.55206 23.7372 2.55206 17.5868ZM32.1358 35.1742H20.0143C13.5291 35.1742 8.27201 40.469 8.27201 47.0004C8.27201 53.5066 13.4887 58.7856 19.9392 58.8264L20.0143 58.8262H32.1358V35.1742ZM37.8558 47.0004C37.8558 53.5317 43.1129 58.8266 49.5981 58.8266H49.9772C56.4625 58.8266 61.7196 53.5317 61.7196 47.0004C61.7196 40.469 56.4625 35.1742 49.9772 35.1742H49.5981C43.1129 35.1742 37.8558 40.469 37.8558 47.0004ZM20.0143 64.5874L19.9392 64.5872C13.4887 64.6278 8.27201 69.9068 8.27201 76.413C8.27201 82.9205 13.5995 88.2392 20.1084 88.2392C26.7223 88.2392 32.1358 82.8349 32.1358 76.2221V64.5874H20.0143ZM20.0143 5.7608C13.5291 5.7608 8.27201 11.0556 8.27201 17.5868C8.27201 24.1183 13.5293 29.413 20.0143 29.413H32.1358V5.76062H20.0143V5.7608ZM37.8558 29.413H49.9772C56.4625 29.413 61.7196 24.1183 61.7196 17.5868C61.7196 11.0555 56.4625 5.7608 49.9772 5.7608H37.8558V29.413Z" fill="#E44F26"/>
</svg>
