<svg width="94" height="94" viewBox="0 0 94 94" fill="none" xmlns="http://www.w3.org/2000/svg">
<path d="M77.9907 56.6937H66.975V62.275H77.9907C79.4594 62.275 80.7813 63.45 80.7813 65.0656C80.7813 66.6812 79.6063 67.8562 77.9907 67.8562H9.25315C7.7844 67.8562 6.46252 69.0312 6.46252 70.6469C6.46252 72.1156 7.63752 73.4375 9.25315 73.4375H78.1375C82.6907 73.4375 86.3625 69.7656 86.3625 65.2125C86.3625 60.3656 82.5438 56.6937 77.9907 56.6937Z" fill="#B2C1C0"/>
<path d="M80.0469 37.7468L74.6125 37.3062C74.6125 37.1593 77.9907 17.0375 78.725 12.925C79.1657 10.575 80.0469 3.96558 88.4188 3.96558V9.54683C85.0407 9.54683 84.6001 10.8687 84.3063 13.3656C83.4251 17.4781 80.0469 37.4531 80.0469 37.7468Z" fill="#B2C1C0"/>
<path d="M80.3407 18.0657H5.87506C3.08443 18.0657 2.64381 20.7094 3.08443 22.1782L11.4563 59.4844C11.8969 60.9532 13.3657 62.1282 14.9813 62.1282H73.4376C74.9063 62.1282 76.3751 60.9532 76.6688 59.3376L82.8376 20.7094C82.9844 19.3875 81.8094 18.0657 80.3407 18.0657ZM10.1344 30.55L8.66568 24.9688C8.51881 24.2344 8.95943 23.6469 9.69381 23.6469H20.1219C20.8563 23.6469 21.5907 24.2344 21.5907 24.9688L22.1782 30.55C22.3251 31.2844 21.7376 31.8719 21.0032 31.8719H11.7501C11.0157 31.8719 10.2813 31.2844 10.1344 30.55ZM14.8344 44.2094C14.1001 44.2094 13.3657 43.6219 13.0719 42.8876L12.0438 38.6282C11.8969 37.8938 12.3376 37.3063 13.0719 37.3063H21.4438C22.1782 37.3063 22.9126 37.8938 22.9126 38.6282L23.3532 42.7407C23.5001 43.475 22.9126 44.0625 22.1782 44.0625C22.3251 44.2094 14.8344 44.2094 14.8344 44.2094ZM23.6469 56.6938H17.9188C17.1844 56.6938 16.4501 56.1063 16.1563 55.3719L15.1282 51.1125C14.9813 50.3782 15.4219 49.7907 16.1563 49.7907H22.7657C23.5001 49.7907 24.2344 50.3782 24.2344 51.1125L24.6751 55.225C24.9688 55.9594 24.3813 56.6938 23.6469 56.6938ZM40.5376 55.225C40.5376 55.9594 39.9501 56.5469 39.2157 56.5469H32.0188C31.2844 56.5469 30.5501 55.9594 30.5501 55.225L30.1094 51.1125C29.9626 50.3782 30.5501 49.7907 31.2844 49.7907H39.2157C39.9501 49.7907 40.5376 50.3782 40.5376 51.1125V55.225ZM40.5376 42.8876C40.5376 43.6219 39.9501 44.2094 39.2157 44.2094H30.6969C29.9626 44.2094 29.2282 43.6219 29.2282 42.8876L28.7876 38.775C28.6407 38.0407 29.2282 37.4532 29.9626 37.4532H39.2157C39.9501 37.4532 40.5376 38.0407 40.5376 38.775V42.8876ZM40.5376 30.55C40.5376 31.2844 39.9501 31.8719 39.2157 31.8719H29.3751C28.6407 31.8719 27.9063 31.2844 27.9063 30.55L27.1719 24.9688C27.0251 24.2344 27.6126 23.6469 28.3469 23.6469H39.0688C39.8032 23.6469 40.3907 24.2344 40.3907 24.9688C40.5376 24.9688 40.5376 30.55 40.5376 30.55ZM55.5188 55.225C55.3719 55.9594 54.7844 56.5469 54.0501 56.5469H47.5876C46.8532 56.5469 46.2657 55.9594 46.2657 55.225V51.1125C46.2657 50.3782 46.8532 49.7907 47.5876 49.7907H54.7844C55.5188 49.7907 56.1063 50.3782 55.9594 51.1125L55.5188 55.225ZM56.8407 42.8876C56.6938 43.6219 56.1063 44.2094 55.3719 44.2094H47.5876C46.8532 44.2094 46.2657 43.6219 46.2657 42.8876V38.775C46.2657 38.0407 46.8532 37.4532 47.5876 37.4532H56.1063C56.8407 37.4532 57.4282 38.0407 57.2813 38.775L56.8407 42.8876ZM58.1626 30.55C58.0157 31.2844 57.4282 31.8719 56.6938 31.8719H47.5876C46.8532 31.8719 46.2657 31.2844 46.2657 30.55V24.9688C46.2657 24.2344 46.8532 23.6469 47.5876 23.6469H57.5751C58.3094 23.6469 58.8969 24.2344 58.7501 24.9688L58.1626 30.55ZM70.9407 55.225C70.7938 55.9594 70.0594 56.5469 69.3251 56.5469H62.2751C61.5407 56.5469 60.9532 55.9594 61.1001 55.225L61.5407 51.1125C61.6876 50.3782 62.2751 49.7907 63.0094 49.7907H70.5001C71.2344 49.7907 71.8219 50.3782 71.6751 51.1125L70.9407 55.225ZM72.8501 42.8876C72.7032 43.6219 71.9688 44.2094 71.2344 44.2094H63.4501C62.7157 44.2094 62.1282 43.6219 62.2751 42.8876L62.7157 38.775C62.8626 38.0407 63.4501 37.4532 64.1844 37.4532H72.2626C72.9969 37.4532 73.5844 38.0407 73.4376 38.775L72.8501 42.8876ZM74.7594 30.55C74.6126 31.2844 73.8782 31.8719 73.1438 31.8719H64.7719C64.0376 31.8719 63.4501 31.2844 63.5969 30.55L64.1844 24.9688C64.3313 24.2344 64.9188 23.6469 65.6532 23.6469H74.3188C75.0532 23.6469 75.6407 24.2344 75.4938 24.9688L74.7594 30.55Z" fill="#F15744"/>
<path d="M18.0656 91.0626C22.6081 91.0626 26.2906 87.3801 26.2906 82.8376C26.2906 78.295 22.6081 74.6125 18.0656 74.6125C13.523 74.6125 9.84058 78.295 9.84058 82.8376C9.84058 87.3801 13.523 91.0626 18.0656 91.0626Z" fill="#62727A"/>
<path d="M18.0656 86.95C20.3369 86.95 22.1781 85.1088 22.1781 82.8375C22.1781 80.5662 20.3369 78.725 18.0656 78.725C15.7944 78.725 13.9531 80.5662 13.9531 82.8375C13.9531 85.1088 15.7944 86.95 18.0656 86.95Z" fill="white"/>
<path d="M67.7094 91.0626C72.2519 91.0626 75.9344 87.3801 75.9344 82.8376C75.9344 78.295 72.2519 74.6125 67.7094 74.6125C63.1668 74.6125 59.4844 78.295 59.4844 82.8376C59.4844 87.3801 63.1668 91.0626 67.7094 91.0626Z" fill="#62727A"/>
<path d="M71.8219 82.8375C71.8219 85.1875 69.9125 86.95 67.7094 86.95C65.3594 86.95 63.5969 85.0406 63.5969 82.8375C63.5969 80.4875 65.5063 78.725 67.7094 78.725C69.9125 78.725 71.8219 80.4875 71.8219 82.8375Z" fill="white"/>
<path d="M89.7407 2.9375H85.6282V11.1625H89.7407C90.4751 11.1625 91.0626 10.575 91.0626 9.84062V4.25937C91.0626 3.525 90.4751 2.9375 89.7407 2.9375Z" fill="#62727A"/>
<path d="M18.0657 71.8219C12.0438 71.8219 7.05005 76.8156 7.05005 82.8375H29.0813C29.0813 76.6688 24.2344 71.8219 18.0657 71.8219Z" fill="#F15744"/>
<path d="M67.7095 71.8219C61.6876 71.8219 56.6938 76.8156 56.6938 82.8375H78.7251C78.7251 76.6688 73.7313 71.8219 67.7095 71.8219Z" fill="#F15744"/>
</svg>
