<svg width="1440" height="88" viewBox="0 0 1440 88" fill="none" xmlns="http://www.w3.org/2000/svg">
<path fill-rule="evenodd" clip-rule="evenodd" d="M0 64.0001L60 59.9307C120 55.8613 240 47.9076 360 49.2024C480 50.6821 600 61.2255 720 59.9307C840 58.6359 960 45.318 1080 35.8845C1200 26.6359 1320 21.2717 1380 18.6821L1440 15.9076V6.10352e-05H1380C1320 6.10352e-05 1200 6.10352e-05 1080 6.10352e-05C960 6.10352e-05 840 6.10352e-05 720 6.10352e-05C600 6.10352e-05 480 6.10352e-05 360 6.10352e-05C240 6.10352e-05 120 6.10352e-05 60 6.10352e-05H0V64.0001Z" fill="#597F98" fill-opacity="0.7"/>
<path fill-rule="evenodd" clip-rule="evenodd" d="M0 12.5714H80.4C159.6 12.5714 320.4 12.5714 480 23.0476C639.6 33.5238 800.4 54.4762 960 67.0476C1119.6 79.619 1280.4 83.8095 1359.6 85.9048L1440 88V0H1359.6C1280.4 0 1119.6 0 960 0C800.4 0 639.6 0 480 0C320.4 0 159.6 0 80.4 0H0V12.5714Z" fill="#394C58" fill-opacity="0.5"/>
</svg>
