<svg width="1440" height="142" viewBox="0 0 1440 142" fill="none" xmlns="http://www.w3.org/2000/svg">
<path fill-rule="evenodd" clip-rule="evenodd" d="M0 0L60 9.0289C120 18.0578 240 35.7052 360 32.8324C480 29.5491 600 6.15607 720 9.0289C840 11.9017 960 41.4509 1080 62.3815C1200 82.9017 1320 94.8035 1380 100.549L1440 106.705V142H1380C1320 142 1200 142 1080 142C960 142 840 142 720 142C600 142 480 142 360 142C240 142 120 142 60 142H0V0Z" fill="#597F98" fill-opacity="0.7"/>
<path fill-rule="evenodd" clip-rule="evenodd" d="M0 122.143H80.4C159.6 122.143 320.4 122.143 480 105.595C639.6 89.0476 800.4 55.9524 960 36.0952C1119.6 16.2381 1280.4 9.61905 1359.6 6.30952L1440 3V142H1359.6C1280.4 142 1119.6 142 960 142C800.4 142 639.6 142 480 142C320.4 142 159.6 142 80.4 142H0V122.143Z" fill="#394C58" fill-opacity="0.5"/>
</svg>
