<svg width="97" height="97" viewBox="0 0 97 97" fill="none" xmlns="http://www.w3.org/2000/svg">
<path fill-rule="evenodd" clip-rule="evenodd" d="M80.3887 31.0643C83.3161 36.4088 84.8454 42.4064 84.8346 48.5C84.8354 54.8579 83.1673 61.1045 79.9969 66.6155C76.8265 72.1265 72.2649 76.7086 66.7683 79.9038L77.8667 47.817C79.9401 42.6356 80.6312 38.4888 80.6312 34.8028C80.6312 33.465 80.5423 32.2243 80.3887 31.0643ZM53.5076 31.4604C55.6942 31.3472 57.6665 31.1168 57.6665 31.1168C59.6227 30.8865 59.3923 28.0048 57.4361 28.122C57.4361 28.122 51.5474 28.5827 47.7482 28.5827C44.1794 28.5827 38.1776 28.122 38.1776 28.122C36.2174 28.0088 35.991 30.9996 37.9472 31.1128C37.9472 31.1128 39.8023 31.3472 41.7585 31.4604L47.4209 46.9723L39.4669 70.8222L26.2344 31.4604C28.425 31.3472 30.3974 31.1168 30.3974 31.1168C32.3495 30.8865 32.1191 28.0048 30.1629 28.122C30.1629 28.122 24.2783 28.5827 20.4791 28.5827C19.792 28.5827 18.9918 28.5665 18.1349 28.5423C21.4391 23.5059 25.9449 19.3712 31.2459 16.5107C36.5469 13.6503 42.4765 12.1542 48.5 12.1574C57.9575 12.1574 66.5743 15.7747 73.0369 21.6957C72.8793 21.6876 72.7298 21.6674 72.5681 21.6674C68.9953 21.6674 66.4652 24.7795 66.4652 28.1179C66.4652 31.1087 68.191 33.6469 70.034 36.6418C71.4162 39.0587 73.0289 42.1708 73.0289 46.6651C73.0289 49.7732 71.8325 53.3824 70.2644 58.4102L66.639 70.519L53.5036 31.4563L53.5076 31.4604ZM48.4959 84.8387C44.9312 84.8387 41.4917 84.3133 38.2301 83.3594L49.1386 51.6768L60.3057 82.2763C60.3784 82.4581 60.4674 82.6238 60.5644 82.7774C56.6887 84.1431 52.6092 84.8401 48.5 84.8387H48.4959ZM12.1654 48.5C12.1654 43.2297 13.2971 38.2302 15.3139 33.7075L32.6445 81.2012C26.505 78.2231 21.328 73.5764 17.7063 67.7932C14.0845 62.0099 12.1643 55.3238 12.1654 48.5ZM48.5 8.08337C26.2183 8.08337 8.08331 26.2143 8.08331 48.5C8.08331 70.7858 26.2142 88.9167 48.5 88.9167C70.7857 88.9167 88.9167 70.7858 88.9167 48.5C88.9167 26.2143 70.7857 8.08337 48.5 8.08337Z" fill="#E44F26"/>
</svg>
